<?xml version="1.0" encoding="utf-8"?>
<!-- Generator: Adobe Illustrator 27.5.0, SVG Export Plug-In . SVG Version: 6.00 Build 0)  -->
<svg version="1.1" xmlns="http://www.w3.org/2000/svg" xmlns:xlink="http://www.w3.org/1999/xlink" x="0px" y="0px"
	 viewBox="0 0 800 800" style="enable-background:new 0 0 800 800;" xml:space="preserve">
<g id="Layer_2">
</g>
<g id="Layer_3">
</g>
<g id="Layer_1">
	<g>
		<path id="XMLID_225_" style="fill:#F6DBAE;" d="M185.066,424.882c7.122,7.663,19.304,11.107,30.304,8.576
			c11.507-2.65,20.025-11.253,23.986-24.225l1.57-5.144l3.441,4.136c0.753,0.903,76.363,89.871,190.465,60.192
			c53.045-13.799,91.487-42.036,111.17-81.661c7.834-15.771,12.423-33.007,13.882-51.106c0.836-10.376,0.667-21.029-0.59-31.876
			c-2.033-17.539-6.786-35.55-14.287-53.581l-0.666-1.598l0.122-0.15c-3.915-12.442-35.382-102.637-121.38-95.242
			c-55.722,4.794-84.255,34.717-111.849,63.653c-18.533,19.435-37.677,39.511-64.772,51.882
			c2.873,9.572,11.039,45.575,1.924,124.008l-0.521,4.484l-12.491-7.539c-0.013-0.005-0.026-0.01-0.042-0.017
			c-2.553-1.013-26.035-9.939-41.929-2.491c-6.339,2.971-10.733,8.301-13.056,15.838
			C177.841,411.151,179.515,418.916,185.066,424.882z M505.731,273.503c-1.082,1.744-3.065,2.581-5.177,2.185
			c-0.729-0.137-1.473-0.327-2.245-0.527c-3.846-1.03-7.717-2.035-16.423,3.918l-3.603,2.462l-1.837-3.953
			c-0.113-0.241-2.751-6.027-0.166-11.682c1.737-3.796,5.236-6.468,10.398-7.944c6.743-1.928,13.162,0.081,17.168,5.37
			C506.535,266.894,507.293,270.982,505.731,273.503z M463.072,213.775c3.229-3.542,9.174-4.533,17.668-2.939
			c27.422,5.144,32.55,20.126,32.754,20.763l2.466,7.594l-7.39-3.039c-0.176-0.07-17.884-7.212-29.285-4.725
			c-3.233,0.705-6.148,0.823-8.663,0.351c-1.895-0.355-3.596-1.053-5.055-2.069l-0.002,0c-3.555-2.486-4.45-6.048-4.639-7.079
			C460.737,221.864,459.829,217.333,463.072,213.775z M388.44,304.184c0.013,0.02,1.23,1.99,3.378,4.33
			c1.168,1.295,2.536,2.533,3.967,3.588c0.758,0.602,1.594,1.089,2.461,1.582c0.555,0.379,1.091,0.605,1.661,0.84
			c0.388,0.165,0.776,0.329,1.151,0.514c0.794,0.285,1.775,0.634,2.762,0.915c0.35,0.036,0.905,0.173,1.46,0.314
			c0.466,0.109,0.937,0.224,1.397,0.299c0.798,0.065,1.668,0.188,2.509,0.313l0.513,0.074l2.582,0.102
			c1.059,0.103,1.919,0.073,2.663,0.051c0.611-0.018,1.158-0.033,1.633,0.001l9.021,0.325l-6.67,3.242c0,0-0.578,0.281-1.628,0.708
			c-0.337,0.121-0.601,0.229-0.891,0.344c-0.923,0.374-2.188,0.89-3.732,1.122l-0.405,0.082c-0.804,0.161-1.666,0.334-2.578,0.446
			l-0.479,0.028c-0.995,0.045-2.047,0.09-3.13,0.078c-1.308-0.065-2.598-0.244-3.892-0.454c-1.401-0.336-2.684-0.724-3.94-1.154
			c-0.601-0.293-0.952-0.458-1.304-0.619c-0.849-0.398-1.727-0.812-2.563-1.429c-1.142-0.659-2.203-1.596-3.065-2.416
			c-0.751-0.618-1.39-1.414-1.953-2.115l-0.561-0.693c-0.624-0.885-1.274-1.834-1.754-2.831c-1.915-3.57-2.033-6.436-2.036-6.558
			l-0.237-6.981L388.44,304.184z M348.914,365.451c0.33,0.168,34.353,17.374,81.866,5.65c46.734-11.532,57.377-42.172,57.479-42.48
			l3.726-11.649l3.347,11.771c0.457,1.607,11,39.7-6.455,69.573c-9.043,15.48-23.924,25.801-44.228,30.682
			c-14.875,3.58-28.766,4.204-41.288,1.859c-10.511-1.971-20.216-6.074-28.845-12.189c-19.211-13.615-29.537-35.237-31-49.569
			l-0.7-6.847L348.914,365.451z M313.768,308.15c5.111-1.65,9.504-1.384,13.06,0.801h0.002c5.166,3.17,6.263,9.111,6.372,9.778
			l0.681,4.323l-4.365-0.04c-10.546-0.09-13.193,2.916-15.751,5.823c-0.57,0.646-1.094,1.239-1.64,1.772
			c-1.219,1.2-2.823,1.719-4.397,1.423c-0.389-0.073-0.768-0.195-1.128-0.362c-2.693-1.217-4.341-5.032-4.09-9.485
			C302.881,315.561,307.089,310.314,313.768,308.15z M283.439,302.244l-4.449,6.65l-2.184-7.688
			c-0.184-0.645-4.228-15.978,15.624-35.492c6.144-6.037,11.645-8.628,16.298-7.406c4.584,1.124,6.384,5.254,6.743,6.202
			c0.438,1.027,1.616,4.44,0.074,8.42c-1.505,3.88-5.015,6.933-10.432,9.069C296.027,285.592,286.387,297.83,283.439,302.244z"/>
		<path id="XMLID_73_" style="fill:#E0A626;" d="M468.211,221.356c0.008,0.038,0.269,1.388,1.629,2.315
			c1.633,1.118,4.355,1.294,7.867,0.532c6.574-1.434,14.373-0.401,20.738,1.079c-4.167-2.806-10.245-5.522-19.068-7.177
			c-6.451-1.21-9.829-0.455-10.839,0.652c-0.736,0.81-0.418,2.17-0.413,2.182L468.211,221.356z"/>
		<path id="XMLID_72_" style="fill:#FFFFFF;" d="M491.376,359.576c0.166-7.168-0.433-13.666-1.147-18.601
			c-6.931,10.751-23.243,28.809-57.681,37.306c-38.076,9.402-67.039,1.732-80.373-3.367c1.58,5.711,4.465,12.428,8.793,19.044
			c11.84,3.395,44.679,10.804,77.518,0.163C471.428,383.448,486.639,366.049,491.376,359.576z"/>
		<path id="XMLID_71_" style="fill:#891B29;" d="M482.483,394.602c6.519-11.148,8.636-23.902,8.894-35.026
			c-4.737,6.473-19.948,23.872-52.889,34.545c-32.839,10.641-65.678,3.232-77.518-0.163c4.394,6.716,10.276,13.327,17.824,18.676
			c2.956,2.094,6.05,3.899,9.262,5.455c16.275,0.389,55.875-0.809,91.147-18.532C480.379,397.977,481.474,396.327,482.483,394.602z"
			/>
		<path id="XMLID_60_" style="fill:#FFFFFF;" d="M388.054,418.09c15.473,7.497,33.869,8.765,54.865,3.719
			c15.957-3.838,28.133-11.313,36.282-22.251C443.929,417.28,404.329,418.478,388.054,418.09z"/>
		<path id="XMLID_54_" style="fill:#E0A626;" d="M308.543,267.09c-0.005-0.012-0.495-1.346-1.584-1.605l-0.002,0
			c-1.563-0.293-4.776,1.015-9.345,5.507c-6.405,6.294-9.936,11.936-11.832,16.588c4.463-4.773,10.365-9.985,16.613-12.454
			c3.348-1.327,5.505-2.994,6.238-4.826c0.613-1.535,0.074-2.804,0.051-2.856L308.543,267.09z"/>
		<path id="XMLID_177_" style="fill:#F6DBAE;" d="M563.961,295.021c0.649-0.266,1.337-0.606,2.043-0.98
			c1.218-0.645,2.509-1.448,3.842-2.382c0.967-0.677,1.95-1.41,2.945-2.219c1.858-1.509,3.739-3.236,5.565-5.121
			c3.118-3.219,6.052-6.902,8.394-10.791c1.071-1.778,2.028-3.594,2.806-5.43c0.352-0.831,0.672-1.666,0.952-2.501
			c2.729-8.154,1.372-14.918-4.036-20.106c-4.91-4.714-10.214-6.931-15.77-6.576c-9.169,0.575-16.852,7.779-19.638,10.738
			C557.255,264.868,561.556,280.078,563.961,295.021z"/>
		<path id="XMLID_178_" style="fill:#E0A626;" d="M237.799,384.407l0.378,0.193l4.947,2.986
			c9.494-86.358-2.824-119.037-2.952-119.363l-1.027-2.614l2.576-1.12c27.309-11.792,45.766-31.147,65.309-51.642
			c28.339-29.717,57.643-60.449,115.555-65.432c84.951-7.303,119.108,75.197,126.37,96.136c2.243-2.101,5.476-4.702,9.382-6.796
			c-6.807-67.907-52.409-103.227-59.699-108.457l-1.62,4.346c-0.602,1.763-1.441,3.427-2.286,5.084l-0.554,1.113
			c-0.76,1.812-1.253,2.83-1.253,2.83c0.084-0.263,0.155-0.525,0.237-0.788l-0.908,1.824l1.466-3.681
			c11.348-38.776,0.453-74.828,0.453-74.828c-0.127,0.405-0.24,0.815-0.394,1.213l-1.424,4.115l-1.779,3.969
			c-0.563,1.341-1.232,2.625-1.97,3.873c-0.726,1.252-1.383,2.552-2.17,3.765l-2.418,3.607c-0.791,1.215-1.748,2.301-2.616,3.458
			c-0.866,1.161-1.797,2.264-2.776,3.325c-0.974,1.065-1.882,2.196-2.936,3.181c-2.017,2.065-4.152,4.003-6.339,5.88
			c-2.222,1.834-4.491,3.611-6.867,5.25c-1.184,0.823-2.385,1.627-3.62,2.389c-1.245,0.778-2.45,1.488-3.851,2.227l-5.78,3.049
			l1.744-6.389c1.623-5.945,2.694-12.051,3.264-18.207c0.296-3.077,0.423-6.172,0.432-9.26c0.004-0.779-0.033-1.555-0.051-2.332
			l-1.297,1.534c-1.974,2.335-3.887,4.727-6.18,6.768l-6.599,6.371c-2.182,2.14-4.709,3.895-7.046,5.858
			c-2.396,1.895-4.699,3.91-7.303,5.519l-7.628,5.061c-2.621,1.556-5.328,2.967-7.986,4.453c-2.628,1.548-5.405,2.798-8.183,4.043
			c-2.779,1.238-5.493,2.621-8.385,3.58c-2.861,1.026-5.681,2.159-8.567,3.092l-8.716,2.603l-8.852,2.048
			c-2.969,0.584-5.959,1.057-8.93,1.588c-3,0.373-5.988,0.811-8.992,1.089c-3.008,0.249-6.009,0.537-9.026,0.58
			c-3.01,0.099-6.029,0.07-9.028-0.093c6.01-0.19,11.971-0.914,17.886-1.816c2.956-0.458,5.888-1.074,8.822-1.623
			c2.906-0.707,5.821-1.353,8.707-2.107l8.581-2.521l8.434-2.932c2.785-1.039,5.496-2.273,8.243-3.397
			c2.773-1.068,5.372-2.523,8.044-3.804c2.667-1.298,5.329-2.598,7.835-4.188c2.536-1.529,5.119-2.979,7.612-4.567l7.247-5.113
			c0.708-0.455,1.355-0.991,2.024-1.498c-106.83-23.407-184.135,28.949-184.935,29.485l-14.467,9.724l10.532-13.888
			c10.614-13.999,8.224-36.337,1.147-42.41c-1.001-0.867-3.667-3.155-8.397,1.724c-14.922,15.384-16.929,60.123-16.947,60.574
			l-0.133,3.249l-3.216-0.498c-24.126-3.756-34.939,5.715-37.677,8.705c-2.752,3.006-3.276,5.462-3.098,6.183
			c1.256,1.792,12.095,2.692,22.695,1.778l7.357-0.632l-4.954,5.474c-84.451,93.353-22.551,202.912-11.226,221.129
			c2.506-2.698,5.468-4.898,8.934-6.52C210.042,372.982,236.676,383.943,237.799,384.407z"/>
		<path id="XMLID_181_" style="fill:#F6DBAE;" d="M578.277,294.326c4.4,0.998,8.537,2.365,12.623,3.846
			c4.228,1.559,8.281,3.387,12.151,5.413c1.954-9.625,1.534-16.431-1.293-20.68c-1.888-2.834-5.023-4.801-9.829-6.131l-0.141-0.036
			c-3.782,6.928-14.628,16.52-15.421,17.215L578.277,294.326z"/>
		<path id="XMLID_182_" style="fill:#F6DBAE;" d="M622.441,333.196c-1.545-0.101-2.968-0.412-4.236-0.915
			c-2.11-0.837-3.742-2.243-4.865-4.031c-0.064,0.042-0.126,0.088-0.189,0.13c-3.965,2.248-8.061,2.72-11.483,2.72
			c-3.457-0.008-6.386-0.56-8.743-1.117c-4.708-1.19-7.181-2.413-7.181-2.413s2.659,0.766,7.377,1.281
			c2.353,0.242,5.234,0.358,8.438,0.04c3.181-0.346,6.745-1.235,9.814-3.315c0.679-0.626,1.478-1.132,2.097-1.851l0.924-1.092
			l0.235-0.272l0.083-0.095l0.023-0.04l0.409-0.718c0.576-1.109,0.267-2.584-0.911-4.141c-2.47-3.101-6.724-5.658-11.062-7.933
			c-4.401-2.294-9.242-4.199-14.185-5.995c-4.935-1.734-10.16-3.332-15.166-4.102c-0.874-0.15-1.907-0.219-2.522-0.215
			c0.003-0.002,0.005-0.004,0.008-0.006c-0.614-0.018-1.653-0.018-2.238-0.016c-1.466,1.476-2.764,3.362-3.867,5.287
			c0,0-0.001,0.001-0.001,0.001c1.203,11.076,1.358,21.972,0.445,32.582c-0.079,0.911-0.183,1.816-0.275,2.723
			c0.435,0.585,0.862,1.172,1.356,1.69c0.727,0.782,1.44,1.549,2.138,2.301c2.799,2.873,5.477,5.419,8.03,7.481
			c2.57,2.021,4.95,3.61,7.04,4.685c2.09,1.069,3.852,1.69,5.098,1.934c1.246,0.26,1.94,0.185,1.94,0.185s-0.673,0.187-1.977,0.129
			c-1.295-0.059-3.22-0.345-5.518-1.186c-1.703-0.588-3.597-1.46-5.618-2.598l-15.928,26.004
			c15.037,17.893,34.518,23.26,44.324,24.855c6.833-13.645,18.145-42.097,20.674-48.514c-0.399,0.271-0.795,0.546-1.21,0.741
			c-1.078,0.523-2.066,1.002-2.941,1.426c-0.896,0.363-1.736,0.535-2.392,0.748c-1.324,0.385-2.08,0.605-2.08,0.605
			s0.726-0.305,1.997-0.84c0.623-0.286,1.417-0.544,2.248-0.998c0.799-0.508,1.7-1.082,2.683-1.708
			c0.986-0.606,1.845-1.563,2.857-2.397c1.024-0.83,1.807-2.027,2.77-3.073c0.904-1.108,1.637-2.419,2.484-3.643
			c0.673-1.355,1.449-2.662,2.037-4.073c0.568-1.423,1.202-2.8,1.62-4.253c0.495-1.417,0.895-2.839,1.226-4.234
			c0.71-2.77,1.131-5.415,1.438-7.676c0.019-0.159,0.033-0.302,0.051-0.457C634.288,331.285,627.817,333.543,622.441,333.196z"/>
		<path id="XMLID_196_" style="fill:#8CC63F;" d="M556.871,383.299c-0.632-0.774-1.254-1.574-1.872-2.384
			c-1.18,2.844-2.422,5.663-3.794,8.424c-8.562,17.236-20.545,32.356-35.548,45.193c24.97,51.677,45.146,62.41,50.832,64.45
			c5.073-7.703,26.127-40.946,43.659-87.378l-0.019-0.072c-0.178-0.014-0.419-0.042-0.615-0.06
			C601.061,410.692,575.75,406.426,556.871,383.299z"/>
		<path id="XMLID_198_" style="fill:#F6DBAE;" d="M619.347,321.345c-0.082,0.404-0.26,0.836-0.418,1.237
			c-0.169,0.434-0.351,0.799-0.499,0.968c-0.192,0.28-0.404,0.512-0.607,0.766c0.78,2.302,3.107,2.959,4.993,3.085
			c6.94,0.448,16.825-5.297,20.691-15.365c1.583-4.123,1.657-7.2,0.217-9.148c-1.334-1.803-3.944-2.629-6.236-2.985
			c-1.512,11.385-15.009,18.833-18.03,20.362C619.433,320.627,619.389,320.99,619.347,321.345z"/>
		<path id="XMLID_199_" style="fill:#F6DBAE;" d="M617.6,314.668c4.101-2.238,17.391-10.437,13.456-20.846
			c-4.531-11.98-20.223-7.068-21.549-6.627c0.988,5.117,0.595,11.487-1.175,19.382C611.82,308.743,615.07,311.218,617.6,314.668z"/>
		<path id="XMLID_213_" style="fill:#F6DBAE;" d="M122.585,425.166c2.323-3.7,4.903-7.321,7.77-10.798
			c2.783-3.337,5.667-6.603,8.965-9.681c-1.453-4.033-5.41-12.557-10.202-14.045c-1.821-0.558-3.74-0.007-5.866,1.679
			c-6.618,5.256-9.691,9.675-9.967,14.332C112.984,411.745,116.049,417.834,122.585,425.166z"/>
		<path id="XMLID_214_" style="fill:#F6DBAE;" d="M374.19,506.705c13.983,8.754,42.652,15.1,61.444,10.206
			c25.4-6.617,38.812-27.166,37.246-38.981c-1.328-10.039-13.909-10.062-16.756-9.937c-6.37,2.247-12.983,4.264-19.831,6.045
			c-23.19,6.034-44.821,7.297-64.635,5.461c-1.174,0.941-7.936,6.926-5.65,18.414C366.548,500.614,369.452,503.738,374.19,506.705z"
			/>
		<path id="XMLID_215_" style="fill:#8CC63F;" d="M352.574,497.074c5.07,12.629,30.155,42.805,84.618,30.932
			c54.197-11.819,50.768-50.651,50.596-52.3c-0.204-1.408-2.475-13.819-17.098-13.493c-1.187,0.517-2.365,1.04-3.571,1.539
			c5.514,1.949,10.531,5.941,11.521,13.413c2.092,15.792-14.453,38.307-41.542,45.368c-16.407,4.276-38.977,0.872-55.187-5.562
			c-4.069-1.615-7.734-3.421-10.805-5.344c-6.283-3.937-9.915-8.168-10.793-12.581c-1.931-9.697,1.251-16.429,4.182-20.332
			c-2.105-0.28-4.169-0.623-6.23-0.969l0.265,0.313C358.117,478.41,348.455,486.821,352.574,497.074z"/>
		<path id="XMLID_216_" style="fill:#F6DBAE;" d="M196.844,470.778l-26.943-14.484c-1.172,2-2.368,3.709-3.544,5.075
			c-1.561,1.884-3.08,3.101-4.169,3.804c-1.097,0.708-1.773,0.885-1.773,0.885s0.638-0.285,1.583-1.136
			c0.953-0.839,2.163-2.263,3.43-4.239c1.264-1.981,2.52-4.553,3.721-7.594c1.166-3.067,2.197-6.615,3.167-10.507
			c0.225-1.001,0.454-2.023,0.688-3.065c0.233-0.978,0.273-2.007,0.426-3.025l0.205-1.543c0.023-0.52-0.014-1.046-0.017-1.573
			c-0.076-1.051,0.091-2.13-0.184-3.188c-0.512-4.286-2.334-8.573-5.134-12.387c-2.798-3.827-6.65-7.099-10.903-9.666
			c-2.128-1.226-4.443-2.35-6.65-2.826c-0.651-0.215-0.815-0.099-1.216-0.238c-0.112-0.084-0.461-0.048-0.816,0.001l-0.509,0.056
			l-0.094,0.01c-0.395,0.163-1.547,0.902-2.417,1.632c-3.936,3.187-7.645,7.199-11.034,11.184
			c-3.365,4.042-6.587,8.126-9.233,12.325c-2.602,4.151-4.989,8.502-5.559,12.426c-0.233,1.939,0.244,3.368,1.3,4.036l0.715,0.414
			l0.039,0.023l0.12,0.041l0.34,0.117l1.348,0.477c0.897,0.309,1.842,0.344,2.744,0.543c3.699,0.25,7.226-0.777,10.148-2.081
			c2.928-1.339,5.358-2.892,7.269-4.286c3.816-2.822,5.727-4.823,5.727-4.823s-1.52,2.303-4.987,5.703
			c-1.755,1.668-4.008,3.621-6.99,5.369c-2.955,1.725-6.731,3.38-11.29,3.436c-0.059-0.003-0.118-0.01-0.177-0.013
			c-0.11,3.38-1.997,6.548-5.421,8.853c-4.468,3.008-11.195,4.321-18.131,3.203c0.093,0.125,0.177,0.24,0.273,0.367
			c1.404,1.798,3.1,3.872,5.109,5.907c0.989,1.038,2.051,2.066,3.192,3.04c1.093,1.044,2.335,1.915,3.542,2.858
			c1.219,0.922,2.548,1.66,3.811,2.492c1.349,0.63,2.643,1.394,3.981,1.896c1.358,0.419,2.639,1.058,3.941,1.259
			c1.294,0.211,2.519,0.605,3.675,0.632c1.164,0.045,2.232,0.087,3.178,0.124c0.947-0.026,1.762-0.203,2.445-0.27
			c1.367-0.178,2.148-0.28,2.148-0.28s-0.764,0.191-2.102,0.526c-0.674,0.146-1.486,0.42-2.443,0.559
			c-0.971,0.074-2.065,0.158-3.259,0.25c-0.427,0.038-0.878-0.001-1.327-0.028c4.607,3.647,31.108,24.515,43.719,32.471
			C177.838,512.472,196.799,499.621,196.844,470.778z"/>
		<path id="XMLID_217_" style="fill:#F6DBAE;" d="M117.51,455.693c1.566-1.054,3.246-2.799,2.758-5.179
			c-0.303-0.118-0.603-0.211-0.91-0.356c-0.213-0.071-0.554-0.294-0.919-0.585c-0.338-0.267-0.709-0.551-0.984-0.858
			c-0.215-0.284-0.435-0.575-0.638-0.874c-2.334,0.137-10.31,0.351-17.361-2.448c-3.236-1.283-6.252-3.227-8.463-6.077
			c-1.818,1.467-3.656,3.5-3.895,5.747c-0.255,2.404,1.359,5.022,4.798,7.782C100.308,459.592,111.738,459.576,117.51,455.693z"/>
		<path id="XMLID_218_" style="fill:#F6DBAE;" d="M115.601,442.071c0.447-4.257,2.007-8.032,3.93-11.661
			c-5.507-5.929-9.057-11.233-10.781-16.152c-1.365,0.289-17.397,3.953-15.275,16.584
			C95.319,441.812,110.93,442.202,115.601,442.071z"/>
		<path id="XMLID_231_" style="fill:#516AB2;" d="M532.767,556.145l0.939-1.12c10.907-12.992,39.888-48.414,42.968-56.175
			c1.218-3.069,1.274-5.193,0.944-6.683c-4.533,7.511-7.406,11.699-7.49,11.821l-0.984,1.422l-1.72-0.188
			c-0.221-0.024-1.492-0.196-3.653-1.053c-8.034-3.189-28.365-15.888-52.734-65.84c-9.3,7.366-19.671,13.902-31.055,19.561
			c9.55,2.931,12.816,11.578,13.571,17.113c0.06,0.53,4.33,45.71-55.122,58.676c-23.624,5.153-42.158,2.774-56.219-2.807
			c-20.695-8.214-31.706-23.359-35.028-31.635c-4.033-10.036,1.169-18.448,4.749-22.681c-0.369-0.076-0.742-0.146-1.11-0.223
			c-13.885,5.698-59.428,7.453-71.87,5.323c-3.825-0.654-6.77-0.334-8.516,0.923c-0.216,0.156-0.358,0.326-0.522,0.492
			c5.903,0.791,11.052,6.023,14.562,14.961c7.801,19.865,7.314,58.906-13.891,80.536c-5.814,5.931-13.732,7.899-22.619,7.135
			c0.4,2.62,1.769,6.639,6.289,9.438c8.405,5.203,38.466,15.627,38.768,15.731l1.413,0.488l0.423,1.434
			c0.734,2.482,17.597,60.53,5.833,106.975c10.018,6.408,64.564,38.347,141.176,28.298c77.069-10.102,95.65-23.53,98.121-25.62
			c2.041-5.912,18.331-58.581-6.885-164.885L532.767,556.145z"/>
		<path id="XMLID_232_" style="fill:#8CC63F;" d="M266.44,574.5c19.228-19.613,19.672-56.41,12.629-74.344
			c-2.779-7.084-6.573-11.248-10.431-11.433c-20.264-0.954-50.979-13.523-60.142-17.846c-2.555-1.214-4.456-1.711-5.865-1.866
			c0.869,37.956-27.773,51.897-28.994,52.475l-1.398,0.659l-1.101-0.657c-0.001,4.505,5.059,13.399,16.292,24.365
			C210.374,568.25,250.595,590.668,266.44,574.5z"/>
		<g id="XMLID_39_">
			<path id="XMLID_4_" style="fill:#F6DBAE;" d="M117.103,395.435c0,0,1.082,12.802,4.431,15.207
				c3.349,2.405,19.072-9.578,19.072-9.578l0.809,2.406l-16.031,23.224l-0.49,0.094l-3.779,0.723l-12.424-16.586l-3.494,1.124
				c0,0,0.272,9.253,4.806,14.998c4.534,5.744-11.703,10.059-18.022,7.91c-6.319-2.15-5.245,5.987-3.131,9.695
				c2.114,3.708,14.229,8.875,14.229,8.875s-8.476,1.477-12.504-0.121c-4.028-1.599,10.049,8.113,10.049,8.113l3.457,8.007
				c0,0,15.482,2.558,23.398-11.514c0,0,16.515-4.563,21.611-20.113c0,0-16.144,15.827-27.637,11.804
				c-11.493-4.023,2.386-21.826,2.386-21.826s-13.492-10.734-14.035-17.046C109.262,404.517,117.103,395.435,117.103,395.435z"/>
			<path id="XMLID_5_" style="fill:#F6DBAE;" d="M114.441,477.76c0.713,0.462,16.915,6.175,28.849,1.408
				c11.934-4.767,11.934-4.767,11.934-4.767s-4.867,8.648,1.961,15.841c6.828,7.193,18.602,11.866,20.95,10.467
				c2.348-1.399,15.989-15.889,15.818-33.53l5.36,2.307c0,0-2.512,21.238-5.195,24.835c-2.683,3.597-18.906,24.594-18.906,24.594
				l-4.456,0.383L114.441,477.76z"/>
			<path id="XMLID_1_" style="fill:#F6DBAE;" d="M162.5,464.199c0,0,8.597-2.685,10.623-8.694l-1.581-0.986L162.5,464.199z"/>
			<path id="XMLID_12_" style="fill:#F6DBAE;" d="M127.577,425.234c0,0-7.031,9.582-2.745,15.049
				c4.286,5.466,24.258-2.386,24.258-2.386s-15.374,14.34-20.796,12.188C122.872,447.933,109.004,446.732,127.577,425.234z"/>
			<path id="XMLID_15_" style="fill:#F6DBAE;" d="M179.018,403.153c0,0,15.77,29.39,33.301,22.72
				c17.53-6.67,28.447-21.524,28.447-21.524s-0.862,24.762-23.35,29.465C194.928,438.517,174.448,430.03,179.018,403.153z"/>
			<path id="XMLID_20_" style="fill:#F6DBAE;" d="M562.133,335.911c-7.842,35.019-54.965,103.619-134.598,122.841
				c-80.911,19.53-151.135-61.06-158.746-94.743c-7.611-33.683-0.895-91.267-0.895-91.267c3.327-5.673,54.598-33.201,92.526-85.39
				c34.953-48.096,119.077-40.127,155.786,2.414c-2.474-3.713-5.048-7.463-7.748-11.261c0,0-69.998-65.796-156.115-2.428
				c-86.117,63.368-27.858,44.889-109.567,89.924c0,0,11.337,72.638,3.682,126.263l-6.148,15.491c0,0,65.798,69.15,134.63,69.212
				c68.831,0.063,146.133-26.638,171.483-83.281C554.513,375.61,560.223,356.516,562.133,335.911z"/>
			<path id="XMLID_17_" style="fill:#F6DBAE;" d="M433.792,517.987c0,0-30.182-2.565-43.814-13.624
				c-13.632-11.059,27.815-14.512,42.3-14.412c14.485,0.1,30.474,7.253,20.986,18.281c-9.487,11.028,29.844-19.625,21.59-33.391
				c-8.254-13.766-23.1-10.244-24.399-9.684c-1.298,0.561-53.918,9.801-56.7,11.387c-2.781,1.586-24.975,0.578-24.975,0.578
				s-7.274,5.451-6.777,17.752c0.497,12.301,33.501,28.089,44.035,26.622C416.574,520.03,433.792,517.987,433.792,517.987z"/>
			<path id="XMLID_18_" style="fill:#F6DBAE;" d="M557.311,241.557c0,0,1.042,25.159,9.972,31.124
				c8.929,5.965,26.588-4.868,26.588-4.868s-21.869,27.542-33.107,32.137c0,0-4.491-30.024-11.745-51.731L557.311,241.557z"/>
			<path id="XMLID_16_" style="fill:#F6DBAE;" d="M593.302,275.117c0,0,0.462,10.583-0.702,15.322
				c-1.163,4.738,13.699,7.051,13.699,7.051l3.06-13.131l2.356,1.293c0,0,3.132,13.795,2.215,17.914
				c-0.917,4.119,11.785,9.16,13.753,4.203c1.967-4.957,9.942-8.785,9.942-8.785s-2.189,14.552-8.647,18.624
				c-6.457,4.072,11.033,5.634,11.033,5.634s2.702,3.583,2.087,5.132c-0.615,1.549-17.329,12.488-25.38,11.086
				c-8.051-1.402-19.841-1.061-24.799-3.028c-4.957-1.967-16.62-11.438-11.586-15.536c5.034-4.099,19.529,0.04,23.769-0.25
				c4.239-0.29,11.474-3.157,11.474-3.157l-18.729-13.351l-15.585-6.365l-7.185-1.776l0.421-4.674L593.302,275.117z"/>
			<path id="XMLID_21_" style="fill:#F6DBAE;" d="M563.591,321.064c0.28,0.649,12.532,22.188,22.447,26.123
				c9.914,3.935,21.307,5.049,21.307,5.049s13.829,9.433,19.908,2.701c6.079-6.732-2.347,13.593-2.347,13.593
				s-17.847-7.442-20.072-6.353c-2.226,1.089-8.315,15.528-8.315,15.528s0.962-10.556-2.075-11.941
				c-3.037-1.385-23.529,20.428-22.784,21.262c0.745,0.834,31.395,16.226,38.507,13.669c7.112-2.557-1.559,7.091-1.559,7.091
				s-46.921-12.346-48.388-28.529l15.894-28.299c0,0-11.626-7.304-13.152-11.137C561.433,335.987,563.591,321.064,563.591,321.064z"
				/>
		</g>
		<path id="XMLID_19_" style="fill:#E0A626;" d="M153.953,231.823c0,0-6.237,63.153,12.211,87.152c0,0-8.098-41.946,11.38-84.244
			c0,0,14.485,69.226,32.277,90.812c0,0-9.58-40.92,3.206-85.336c0,0,22.076,60.942,30.839,74.103
			c8.763,13.161,5.072,56.345,4.335,58.204c-0.738,1.859-1.742,19.75-1.742,19.75s-33.719-17.148-44.475-11.734
			c-10.756,5.414-20.855,13.24-20.855,13.24S127.606,309.051,153.953,231.823z"/>
		<path id="XMLID_22_" style="fill:#E0A626;" d="M170.408,153.09c0,0-1.027,6.316,5.195,6.903
			c6.222,0.587,32.734-6.912,32.734-6.912l-17.576,15.483l-21.898-3.446c0,0-3.659-5.352-3.52-5.701
			C165.48,159.069,170.408,153.09,170.408,153.09z"/>
		<path id="XMLID_23_" style="fill:#E0A626;" d="M245.547,93.21c0,0,0.124,20.357-2.6,25.865
			c-2.724,5.509-10.039,13.095-10.826,13.724c-0.788,0.629-5.699,4.193-5.699,4.193s17.867-36.885,13.383-55.745L245.547,93.21z"/>
		<path id="XMLID_14_" style="fill:#E0A626;" d="M349.798,173.453c0,0,51.101-21.678,69.389-39.972
			C437.476,115.187,439,112.026,439,112.026s-2.834,16.627-4.863,21.74s26.874-1.975,43.577-23.05
			c16.702-21.075,0.88,33.701-12.421,42.14c-13.301,8.438-9.682-9.491-50.421-1.721
			C374.132,158.903,349.798,173.453,349.798,173.453z"/>
		<path id="XMLID_13_" style="fill:#E0A626;" d="M549.837,189.907l12.195,46.531l-14.828,10.253c0,0-19.867-50.92-39.681-64.701
			c-19.814-13.781,34.302,15.228,42.858,37.721L549.837,189.907z"/>
		<path id="XMLID_37_" style="fill:#516AB2;" d="M400.482,705.15c43.302,12.882,67.381-9.837,67.381-9.837
			c-102.332-5.11-150.283-89.411-150.283-89.411s-55.244-14.987-48.112-32.001l-26.032,10.86c0.347,1.87,1.212,5.579,2.987,8.411
			c2.471,3.939,43.6,20.263,43.6,20.263c22.224,47.014,6.693,106.479,6.693,106.479c125.728,73.569,240.118,4.926,240.118,4.926
			C483.589,742.438,400.482,705.15,400.482,705.15z"/>
		<path id="XMLID_38_" style="fill:#8CC63F;" d="M272.44,570.771c16.973-18.367,16.148-48.819,11.393-67.562
			c-4.755-18.743-15.023-16.363-15.023-16.363c19.901,34.796,1.55,70.189,1.55,70.189c-61.955-21.003-80.72-47.817-80.72-47.817
			s-2.454-3.305-4.391,1.575c-1.937,4.88-14.979,5.89-14.979,5.89l-1.506,9.892c14.199,31.994,75.175,57.271,75.175,57.271
			s0.059,0.459,0.195,1.191l26.032-10.86C270.639,573.05,271.385,571.913,272.44,570.771z"/>
		<path id="XMLID_24_" style="fill:#516AB2;" d="M266.696,483.138c0,0,9.162,0.409,16.13,13.574
			c6.968,13.166,43.051,11.707,43.051,11.707s-15.219,49.188,48.812,59.539c64.031,10.351,102.413-33.948,101.863-54.249
			c0,0-40.27,32.791-82.652,16.687c-42.382-16.104-39.332-32.825-27.006-53.036l-13.839,1.321
			C353.055,478.682,325.565,493.054,266.696,483.138z"/>
		<path id="XMLID_34_" style="fill:#8CC63F;" d="M564.945,387.679c0,0-20.809,47.687-30.905,56.86
			c-10.096,9.173,28.631,47.136,31.323,47.129c2.693-0.007,19.487-21.315,19.487-21.315s-15.847,28.408-16.124,29.105
			c-0.277,0.697-14.772-3.442-21.145-8.392c-6.373-4.95-35.347-58.678-35.347-58.678s22.659-15.752,27.451-29.182
			s14.228-26.361,14.228-26.361L564.945,387.679z"/>
		<path id="XMLID_33_" style="fill:#8CC63F;" d="M474.127,486.388c0,0,11.298-10.847,13.533-8.346
			c2.235,2.501,0.683-5.108,0.683-5.108s-8.302-14.323-12.713-14.729c-4.411-0.406-8.395,2.854-8.395,2.854l-2.73,3.489
			C464.505,464.548,475.182,481.696,474.127,486.388z"/>
		<path id="XMLID_35_" style="fill:#516AB2;" d="M479.521,455.177l31.881-22.044c0,0,12.042,23.876,12.185,25.547
			c0.144,1.671,24.464,33.917,24.464,33.917s-19.666-10.764-36.545-3.477c-16.879,7.288-38.129,28.978-38.129,28.978
			s25.278-25.74,19.392-39.373c-5.886-13.633-17.228-18.941-17.228-18.941L479.521,455.177z"/>
		<path id="XMLID_36_" style="fill:#516AB2;" d="M561.258,501.335c0,0-24.409,38.458-32.424,44.422
			c-8.015,5.964-20.877,5.163-20.877,5.163s35.492,43.404,38.323,60.666l-9.015-55.22l36.732-47.823l6.511-13.016l-3.039-7.93
			l-11.38,15.118L561.258,501.335z"/>
		<path id="XMLID_40_" style="fill:#F6DBAE;" d="M385.479,298.609c0,0-12.193,23.492,7.759,31.052
			c19.952,7.56,31.471-13.331,31.471-13.331s-12.979,7.401-23.636,3.53C390.415,315.989,385.479,298.609,385.479,298.609z"/>
		<path id="XMLID_41_" style="fill:#F6DBAE;" d="M461.839,220.969c0,0-2.366,17.709,9.835,20.4
			c12.201,2.691,27.221-5.335,44.271,5.019c17.05,10.353-4.204-21.034-22.518-18.262
			C475.112,230.899,460.737,225.552,461.839,220.969z"/>
		<path id="XMLID_43_" style="fill:#F6DBAE;" d="M279.28,305.951l2.881,12.619c0,0,14.785-26.408,29.135-30.037
			c14.351-3.629,7.432-21.437,3.404-23.036c-4.028-1.599-4.309,9.049-10.304,12.407C298.402,281.264,279.28,305.951,279.28,305.951z
			"/>
		<path id="XMLID_212_" style="fill:#3C2415;" d="M387.054,311.771c0.48,0.997,1.13,1.946,1.754,2.831l0.561,0.693
			c0.563,0.701,1.202,1.497,1.953,2.115c0.862,0.82,1.923,1.757,3.065,2.416c0.836,0.616,1.713,1.031,2.563,1.429
			c0.352,0.161,0.703,0.327,1.304,0.619c1.257,0.43,2.54,0.818,3.94,1.154c1.294,0.21,2.584,0.389,3.892,0.454
			c1.083,0.012,2.135-0.033,3.13-0.078l0.479-0.028c0.912-0.112,1.775-0.285,2.578-0.446l0.405-0.082
			c1.544-0.232,2.809-0.748,3.732-1.122c0.29-0.115,0.554-0.223,0.891-0.344c1.05-0.427,1.628-0.708,1.628-0.708l6.67-3.242
			l-9.021-0.325c-0.475-0.034-1.021-0.019-1.633-0.001c-0.744,0.022-1.604,0.052-2.663-0.051l-2.582-0.102l-0.513-0.074
			c-0.842-0.125-1.711-0.248-2.509-0.313c-0.46-0.075-0.931-0.189-1.397-0.299c-0.556-0.141-1.111-0.278-1.46-0.314
			c-0.987-0.281-1.969-0.63-2.762-0.915c-0.375-0.184-0.763-0.349-1.151-0.514c-0.57-0.235-1.106-0.461-1.661-0.84
			c-0.866-0.493-1.702-0.981-2.461-1.582c-1.432-1.055-2.799-2.292-3.967-3.588c-2.148-2.339-3.365-4.309-3.378-4.33l-3.66-5.951
			l0.237,6.981C385.021,305.335,385.139,308.201,387.054,311.771z"/>
		<path id="XMLID_211_" style="fill:#3C2415;" d="M486.677,257.962c-5.161,1.475-8.66,4.147-10.398,7.944
			c-2.586,5.654,0.053,11.44,0.166,11.682l1.837,3.953l3.603-2.462c8.706-5.954,12.577-4.949,16.423-3.918
			c0.773,0.2,1.516,0.391,2.245,0.527c2.112,0.396,4.095-0.441,5.177-2.185c1.562-2.521,0.805-6.61-1.885-10.171
			C499.839,258.043,493.42,256.035,486.677,257.962z"/>
		<path id="XMLID_208_" style="fill:#3C2415;" d="M465.566,229.71l0.002,0c1.459,1.016,3.16,1.713,5.055,2.069
			c2.514,0.472,5.43,0.354,8.663-0.351c11.401-2.487,29.109,4.655,29.285,4.725l7.39,3.039l-2.466-7.594
			c-0.204-0.637-5.331-15.619-32.754-20.763c-8.495-1.593-14.44-0.603-17.668,2.939c-3.243,3.558-2.335,8.089-2.144,8.856
			C461.116,223.662,462.011,227.225,465.566,229.71z M468.537,218.757c1.011-1.107,4.389-1.863,10.84-0.653
			c8.823,1.655,14.901,4.371,19.068,7.177c-6.365-1.48-14.164-2.514-20.737-1.079c-3.512,0.763-6.235,0.587-7.867-0.532
			c-1.36-0.927-1.621-2.277-1.629-2.315l-0.087-0.417C468.119,220.927,467.801,219.567,468.537,218.757z"/>
		<path id="XMLID_207_" style="fill:#3C2415;" d="M306.601,331.668c0.36,0.167,0.739,0.289,1.128,0.362
			c1.574,0.296,3.178-0.223,4.397-1.423c0.546-0.533,1.071-1.125,1.64-1.772c2.559-2.907,5.205-5.912,15.751-5.823l4.365,0.04
			l-0.681-4.323c-0.108-0.667-1.206-6.608-6.372-9.778h-0.002c-3.556-2.185-7.948-2.45-13.06-0.801
			c-6.679,2.164-10.887,7.411-11.257,14.032C302.26,326.636,303.909,330.45,306.601,331.668z"/>
		<path id="XMLID_204_" style="fill:#3C2415;" d="M315.545,272.93c1.542-3.98,0.364-7.393-0.074-8.42
			c-0.359-0.949-2.159-5.078-6.743-6.202c-4.654-1.222-10.155,1.369-16.298,7.406c-19.852,19.515-15.808,34.848-15.624,35.492
			l2.184,7.688l4.449-6.65c2.948-4.414,12.588-16.652,21.673-20.246C310.53,279.863,314.04,276.81,315.545,272.93z M302.394,275.125
			c-6.248,2.469-12.15,7.681-16.613,12.454c1.896-4.652,5.427-10.294,11.832-16.588c4.57-4.492,7.782-5.8,9.345-5.507l0.002,0
			c1.089,0.259,1.579,1.593,1.584,1.605l0.14,0.353c0.023,0.052,0.562,1.322-0.051,2.856
			C307.899,272.132,305.741,273.799,302.394,275.125z"/>
		<path id="XMLID_201_" style="fill:#3C2415;" d="M374.516,418.666c8.629,6.116,18.334,10.218,28.845,12.189
			c12.522,2.345,26.413,1.721,41.288-1.859c20.303-4.881,35.185-15.202,44.228-30.682c17.456-29.873,6.913-67.966,6.455-69.573
			l-3.347-11.771l-3.726,11.649c-0.102,0.308-10.745,30.948-57.479,42.48c-47.513,11.725-81.536-5.481-81.866-5.65l-6.097-3.201
			l0.7,6.847C344.979,383.428,355.305,405.051,374.516,418.666z M432.548,378.281c34.438-8.497,50.75-26.556,57.681-37.306
			c1.822,12.595,2.974,35.296-7.747,53.628c-7.989,13.66-21.301,22.814-39.563,27.206c-25.353,6.094-46.93,3.009-64.127-9.174
			c-14.982-10.618-23.434-26.212-26.617-37.721C365.509,380.012,394.473,387.682,432.548,378.281z"/>
		<path id="XMLID_172_" style="fill:#3C2415;" d="M582.073,500.993c2.837-7.148,1.215-12.008-0.972-14.711
			c9.261-15.939,22.874-41.703,34.801-73.478l0.317-0.845l-1.505-6.081l-2.24-0.031c-0.01,0-0.055-0.001-0.113-0.003
			c7.721-16.383,20.816-51.133,23.133-57.286c0.825-1.237,1.731-2.467,2.471-3.786c0.773-1.423,1.619-2.829,2.236-4.3
			c0.699-1.444,1.296-2.899,1.817-4.33c1.091-2.848,1.86-5.588,2.464-7.955c0.567-2.375,0.97-4.375,1.187-5.803
			c0.107-0.732,0.191-1.307,0.249-1.699c0.046-0.378,0.071-0.579,0.071-0.579l-0.176-0.01c1.218-1.824,2.283-3.809,3.115-5.975
			c2.341-6.099,2.162-11.04-0.535-14.686c-2.843-3.842-7.789-5.058-11.231-5.424c-0.176-0.737-0.387-1.482-0.675-2.243
			c-5.259-13.911-21.024-12.709-28.792-10.088c-0.342-0.685-0.687-1.365-1.103-1.991c-2.942-4.421-7.465-6.822-12.13-8.244
			l-0.145-0.057c0.345-0.649,0.682-1.298,0.948-1.967c0.263-0.661,0.53-1.322,0.751-1.981c3.455-10.319,1.544-19.357-5.523-26.138
			c-6.134-5.886-12.914-8.635-20.156-8.186c-2.244,0.141-4.39,0.599-6.425,1.248c-7.981-71.665-58.481-108.246-63.572-111.755
			c0.054-0.194,0.103-0.39,0.159-0.584c0.52-1.797,0.997-3.606,1.282-5.455l1.01-5.527l0.599-5.591
			c0.255-1.865,0.241-3.742,0.312-5.619c0.064-1.878,0.119-3.757,0.003-5.632c-0.098-1.874-0.076-3.762-0.275-5.631l-0.556-5.615
			l-0.837-5.584l-1.141-5.533c-0.475-1.823-0.883-3.665-1.415-5.476c-0.522-1.814-1.059-3.625-1.682-5.416
			c-0.609-1.81-1.256-3.546-2.046-5.396l-2.622-6.144l-1.784,6.692L490.307,60c-0.317,1.309-0.69,2.599-1.2,3.848l-1.389,3.786
			l-1.726,3.648c-0.54,1.233-1.186,2.413-1.899,3.559c-0.7,1.151-1.325,2.344-2.081,3.46l-2.318,3.315
			c-0.754,1.117-1.677,2.115-2.505,3.179c-0.826,1.068-1.717,2.082-2.656,3.058c-0.929,0.982-1.803,2.013-2.799,2.934
			c-1.904,1.925-3.922,3.731-5.988,5.485c-2.102,1.711-4.247,3.371-6.485,4.892c-0.376,0.257-0.764,0.492-1.142,0.744
			c0.874-4.129,1.528-8.3,1.866-12.5c0.291-3.25,0.405-6.513,0.393-9.778c-0.003-1.633-0.059-3.267-0.14-4.904
			c-0.101-1.658-0.212-3.234-0.442-4.997l-0.827-6.357l-4.213,5.043l-5.671,6.789c-1.898,2.256-3.708,4.595-5.873,6.605l-6.246,6.27
			c-1.844,1.885-3.956,3.473-5.97,5.173c-89.284-20.523-160.134,10.734-184.609,23.886c6.15-15.804,2.482-34.38-4.988-40.796
			c-4.903-4.204-11.009-3.42-16.35,2.086c-14.144,14.582-17.645,50.251-18.399,61.197c-24.09-2.832-35.718,6.618-39.691,10.958
			c-3.597,3.928-5.262,8.226-4.453,11.498c1.443,5.828,12.387,6.839,21.844,6.579c-45.123,53.489-44.908,110.917-36.477,150.22
			c8.61,40.141,26.753,68.994,30.42,74.544c-1.416,2.37-2.604,4.98-3.501,7.889c-1.897,6.155-1.837,12.148,0.027,17.601
			c-0.679-1.396-1.438-2.762-2.336-4.057c-3.127-4.544-7.268-8.549-12.22-11.544c-2.506-1.47-5.102-2.82-8.22-3.565
			c-0.643-0.24-1.871-0.326-2.812-0.405c-0.565-0.056-0.894-0.014-1.218,0.024l-0.51,0.05l-0.255,0.025l-0.127,0.012
			c0.341-0.069-0.532,0.099-0.483,0.097l-0.101,0.035c-1.051,0.383-1.816,0.791-2.474,1.21c-1.96-4.88-6.351-13.649-13.234-15.701
			c-2.569-0.791-6.597-0.967-11.19,2.681c-5.402,4.289-11.664,10.272-12.153,18.534c-0.044,0.749,0,1.511,0.05,2.273
			c-8.03,1.652-22.254,8.553-19.789,23.222c0.135,0.801,0.331,1.544,0.549,2.268c-2.789,2.046-6.452,5.591-6.971,10.352
			c-0.492,4.507,1.841,8.866,6.935,12.954c1.808,1.45,3.721,2.641,5.689,3.602l-0.134,0.089c0,0,0.123,0.161,0.353,0.464
			c0.247,0.31,0.61,0.764,1.071,1.342c0.906,1.125,2.262,2.649,3.949,4.415c1.714,1.74,3.758,3.72,6.136,5.63
			c1.171,0.974,2.42,1.93,3.751,2.825c1.275,0.96,2.714,1.748,4.098,2.588c1.398,0.821,2.914,1.456,4.334,2.165
			c0.143,0.048,0.278,0.103,0.419,0.152c6.773,5.546,33.627,27.481,47.959,37.411c-2.583,6.995,3.543,18.335,17.485,31.947
			c12.432,12.136,29.713,24.469,46.273,31.042c4.21,1.67,8.369,2.955,12.395,3.782c0.229,3.617,1.689,10.623,9.157,15.248
			c7.943,4.922,32.234,13.587,38.488,15.782c2.553,9.375,16.165,63.135,4.866,104.416l-0.536,1.957l1.653,1.178
			c0.26,0.182,11.834,8.246,32.082,16.282c25.923,10.289,66.064,20.532,114.871,14.135c86.899-11.395,101.482-27.188,102.061-27.855
			l0.323-0.372l0.182-0.459c0.856-2.156,20.576-53.934-6.098-167.502C546.035,549.342,578.303,510.492,582.073,500.993z
			 M610.129,411.532l0.019,0.072c-17.531,46.432-38.586,79.675-43.659,87.378c-5.686-2.04-25.862-12.773-50.832-64.45
			c15.003-12.837,26.986-27.957,35.548-45.193c1.371-2.761,2.613-5.58,3.794-8.424c0.619,0.809,1.241,1.61,1.872,2.384
			c18.879,23.127,44.19,27.393,52.642,28.173C609.71,411.49,609.951,411.518,610.129,411.532z M564.769,344.469
			c0.593,0.557,1.188,1.109,1.754,1.589c2.194,1.947,4.354,3.649,6.44,5.126l-14.821,24.197c-0.226-0.32-0.453-0.637-0.678-0.959
			C560.925,364.807,563.371,354.796,564.769,344.469z M639.717,326.825c-0.018,0.155-0.032,0.298-0.051,0.457
			c-0.307,2.261-0.727,4.906-1.438,7.676c-0.331,1.395-0.731,2.818-1.226,4.234c-0.418,1.453-1.052,2.83-1.62,4.253
			c-0.588,1.41-1.364,2.718-2.037,4.073c-0.847,1.224-1.58,2.536-2.484,3.643c-0.963,1.046-1.746,2.243-2.77,3.073
			c-1.011,0.834-1.871,1.791-2.857,2.397c-0.983,0.626-1.884,1.199-2.683,1.708c-0.831,0.454-1.625,0.712-2.248,0.998
			c-1.271,0.535-1.997,0.84-1.997,0.84s0.757-0.22,2.08-0.605c0.656-0.213,1.495-0.385,2.392-0.748
			c0.876-0.424,1.864-0.904,2.941-1.426c0.415-0.195,0.811-0.47,1.21-0.741c-2.529,6.417-13.84,34.869-20.674,48.514
			c-9.806-1.595-29.287-6.962-44.324-24.855l15.928-26.004c2.021,1.138,3.914,2.01,5.618,2.598c2.298,0.841,4.223,1.127,5.518,1.186
			c1.304,0.058,1.977-0.129,1.977-0.129s-0.694,0.075-1.94-0.185c-1.246-0.244-3.008-0.865-5.098-1.934
			c-2.09-1.075-4.47-2.664-7.04-4.685c-2.553-2.062-5.231-4.608-8.03-7.481c-0.698-0.752-1.411-1.519-2.138-2.301
			c-0.494-0.517-0.921-1.104-1.356-1.69c0.092-0.908,0.196-1.812,0.275-2.723c0.912-10.61,0.758-21.506-0.445-32.581
			c0,0,0.001-0.001,0.001-0.001c1.103-1.925,2.4-3.811,3.867-5.287c0.585-0.001,1.624-0.001,2.238,0.016
			c-0.003,0.002-0.005,0.004-0.008,0.006c0.615-0.004,1.648,0.065,2.522,0.215c5.006,0.77,10.231,2.368,15.166,4.102
			c4.943,1.796,9.784,3.701,14.185,5.995c4.339,2.275,8.593,4.832,11.062,7.933c1.178,1.558,1.486,3.033,0.911,4.141l-0.409,0.718
			l-0.023,0.04l-0.083,0.095l-0.235,0.272l-0.924,1.092c-0.619,0.719-1.418,1.225-2.097,1.851c-3.069,2.08-6.633,2.969-9.814,3.315
			c-3.204,0.318-6.085,0.201-8.438-0.04c-4.718-0.515-7.377-1.281-7.377-1.281s2.473,1.223,7.181,2.413
			c2.357,0.557,5.286,1.109,8.743,1.117c3.422,0.001,7.518-0.471,11.483-2.72c0.064-0.042,0.126-0.088,0.189-0.13
			c1.123,1.788,2.755,3.194,4.865,4.031c1.268,0.503,2.69,0.814,4.236,0.915C627.817,333.543,634.288,331.285,639.717,326.825z
			 M637.488,299.903c2.292,0.355,4.902,1.182,6.236,2.985c1.44,1.948,1.365,5.025-0.217,9.148
			c-3.866,10.068-13.751,15.812-20.691,15.365c-1.886-0.126-4.213-0.783-4.993-3.085c0.203-0.254,0.415-0.486,0.607-0.766
			c0.148-0.169,0.33-0.533,0.499-0.968c0.157-0.401,0.335-0.833,0.418-1.237c0.042-0.355,0.086-0.718,0.111-1.079
			C622.479,318.736,635.976,311.289,637.488,299.903z M631.056,293.823c3.935,10.409-9.355,18.608-13.456,20.846
			c-2.53-3.451-5.779-5.925-9.268-8.09c1.77-7.895,2.163-14.265,1.175-19.382C610.832,286.755,626.524,281.842,631.056,293.823z
			 M591.93,276.775c4.805,1.33,7.941,3.296,9.829,6.131c2.827,4.249,3.247,11.055,1.293,20.68c-3.87-2.026-7.923-3.855-12.151-5.413
			c-4.086-1.481-8.223-2.849-12.623-3.846l-1.909-0.371c0.793-0.695,11.639-10.288,15.421-17.215L591.93,276.775z M570.703,238.914
			c5.556-0.355,10.86,1.863,15.77,6.576c5.408,5.189,6.765,11.953,4.036,20.106c-0.28,0.836-0.6,1.67-0.952,2.501
			c-0.778,1.836-1.735,3.652-2.806,5.43c-2.342,3.889-5.276,7.573-8.394,10.791c-1.826,1.885-3.707,3.612-5.565,5.121
			c-0.996,0.809-1.979,1.542-2.945,2.219c-1.333,0.934-2.624,1.737-3.842,2.382c-0.706,0.374-1.394,0.714-2.043,0.98
			c-2.405-14.943-6.705-30.153-12.896-45.369C553.851,246.693,561.533,239.489,570.703,238.914z M193.246,167.306l4.954-5.474
			l-7.357,0.632c-10.601,0.913-21.44,0.014-22.695-1.778c-0.178-0.721,0.345-3.177,3.098-6.183
			c2.738-2.99,13.551-12.461,37.677-8.705l3.216,0.498l0.133-3.249c0.019-0.451,2.026-45.19,16.947-60.574
			c4.73-4.879,7.396-2.591,8.397-1.724c7.077,6.074,9.467,28.411-1.147,42.41l-10.532,13.888l14.467-9.724
			c0.8-0.536,78.105-52.893,184.935-29.485c-0.668,0.507-1.315,1.043-2.024,1.498l-7.247,5.113
			c-2.492,1.588-5.076,3.038-7.612,4.567c-2.506,1.59-5.168,2.89-7.835,4.188c-2.673,1.281-5.271,2.736-8.044,3.804
			c-2.747,1.124-5.458,2.357-8.243,3.397l-8.434,2.932l-8.581,2.521c-2.885,0.754-5.801,1.4-8.707,2.107
			c-2.934,0.549-5.866,1.165-8.822,1.623c-5.915,0.901-11.876,1.626-17.886,1.816c2.999,0.163,6.018,0.192,9.028,0.093
			c3.017-0.043,6.018-0.33,9.026-0.58c3.004-0.278,5.992-0.715,8.992-1.089c2.971-0.531,5.961-1.004,8.93-1.588l8.852-2.048
			l8.716-2.603c2.886-0.933,5.706-2.066,8.567-3.092c2.892-0.959,5.606-2.342,8.385-3.58c2.777-1.245,5.555-2.496,8.183-4.043
			c2.657-1.486,5.365-2.898,7.986-4.453l7.628-5.061c2.604-1.609,4.907-3.624,7.303-5.519c2.337-1.963,4.864-3.718,7.046-5.858
			l6.599-6.371c2.293-2.041,4.205-4.433,6.18-6.768l1.297-1.534c0.018,0.778,0.055,1.553,0.051,2.332
			c-0.009,3.088-0.135,6.183-0.432,9.26c-0.57,6.156-1.641,12.262-3.264,18.207l-1.744,6.389l5.78-3.049
			c1.401-0.739,2.606-1.45,3.851-2.227c1.235-0.762,2.436-1.565,3.62-2.389c2.376-1.639,4.645-3.416,6.867-5.25
			c2.187-1.877,4.321-3.815,6.339-5.88c1.054-0.985,1.963-2.116,2.936-3.181c0.979-1.061,1.91-2.165,2.776-3.325
			c0.868-1.156,1.825-2.243,2.616-3.458l2.418-3.607c0.787-1.214,1.444-2.513,2.17-3.765c0.738-1.248,1.408-2.532,1.97-3.873
			l1.779-3.969l1.424-4.115c0.154-0.397,0.267-0.807,0.394-1.213c0,0,10.895,36.053-0.453,74.828l-1.466,3.681l0.908-1.824
			c-0.082,0.263-0.153,0.525-0.237,0.788c0,0,0.493-1.017,1.253-2.83l0.554-1.113c0.844-1.658,1.684-3.322,2.286-5.084l1.62-4.346
			c7.29,5.229,52.892,40.549,59.699,108.457c-3.906,2.094-7.139,4.696-9.382,6.796c-7.262-20.938-41.418-103.439-126.37-96.136
			c-57.912,4.983-87.216,35.715-115.555,65.432c-19.543,20.495-38,39.85-65.309,51.642l-2.576,1.12l1.027,2.614
			c0.127,0.325,12.446,33.005,2.952,119.363l-4.947-2.986l-0.378-0.193c-1.123-0.464-27.757-11.425-46.845-2.492
			c-3.466,1.622-6.428,3.822-8.934,6.52C170.695,370.218,108.795,260.659,193.246,167.306z M180.347,403.021
			c2.323-7.537,6.716-12.867,13.056-15.838c15.894-7.449,39.376,1.478,41.929,2.491c0.016,0.006,0.029,0.012,0.042,0.017
			l12.491,7.539l0.521-4.484c9.115-78.433,0.949-114.436-1.924-124.008c27.095-12.371,46.24-32.448,64.772-51.882
			c27.594-28.936,56.127-58.86,111.849-63.653c85.998-7.395,117.465,82.8,121.38,95.242l-0.122,0.15l0.666,1.598
			c7.501,18.031,12.254,36.042,14.287,53.581c1.257,10.847,1.426,21.499,0.59,31.876c-1.459,18.099-6.047,35.336-13.882,51.106
			c-19.683,39.625-58.125,67.862-111.17,81.661c-114.102,29.679-189.712-59.289-190.465-60.192l-3.441-4.136l-1.57,5.144
			c-3.961,12.972-12.479,21.574-23.986,24.225c-11,2.531-23.182-0.913-30.304-8.576
			C179.515,418.916,177.841,411.151,180.347,403.021z M358.265,477.745c2.061,0.346,4.125,0.689,6.23,0.969
			c-2.931,3.904-6.113,10.635-4.182,20.332c0.877,4.413,4.51,8.644,10.793,12.581c3.071,1.924,6.736,3.729,10.805,5.344
			c16.21,6.433,38.78,9.837,55.187,5.562c27.089-7.061,43.634-29.576,41.542-45.368c-0.99-7.472-6.007-11.464-11.521-13.413
			c1.206-0.499,2.384-1.022,3.571-1.539c14.623-0.327,16.894,12.085,17.098,13.493c0.173,1.649,3.601,40.48-50.596,52.3
			c-54.462,11.873-79.547-18.303-84.618-30.932c-4.12-10.253,5.543-18.664,5.956-19.016L358.265,477.745z M371.659,479.499
			c19.813,1.836,41.445,0.573,64.635-5.461c6.848-1.781,13.461-3.799,19.831-6.045c2.847-0.124,15.427-0.102,16.756,9.937
			c1.566,11.815-11.845,32.363-37.246,38.981c-18.792,4.894-47.462-1.452-61.444-10.206c-4.738-2.967-7.642-6.091-8.181-8.792
			C363.722,486.425,370.484,480.44,371.659,479.499z M175.536,443.452c1.317-3.726,2.568-8.659,2.215-13.684
			c-0.139-2.484-0.661-5.018-1.513-7.49c1.175,2.322,2.681,4.527,4.572,6.561c3.405,3.661,7.759,6.519,12.59,8.436
			c7.222,2.866,15.51,3.632,23.274,1.843c12.149-2.795,21.441-11.066,26.565-23.503c10.419,10.982,44.688,43.559,95.778,57.832
			c-17.582,3.11-48.789,4.246-59.085,2.483c-5.602-0.957-10.007-0.255-13.097,2.089c-1.861,1.411-2.799,3.093-3.286,4.376
			c-17.842-2.401-42.448-11.988-52.571-16.771c-7.24-3.415-11.597-2.724-14.067-1.408l-24.356-13.091
			C173.613,448.798,174.622,446.24,175.536,443.452z M123.253,392.32c2.126-1.686,4.045-2.237,5.866-1.679
			c4.792,1.488,8.749,10.012,10.202,14.045c-3.298,3.078-6.182,6.343-8.965,9.681c-2.867,3.477-5.447,7.098-7.77,10.798
			c-6.536-7.332-9.601-13.421-9.299-18.513C113.561,401.995,116.635,397.576,123.253,392.32z M108.751,414.258
			c1.724,4.919,5.273,10.223,10.781,16.152c-1.923,3.629-3.484,7.405-3.93,11.661c-4.672,0.131-20.282-0.259-22.125-11.23
			C91.354,418.211,107.386,414.546,108.751,414.258z M91.898,452.845c-3.439-2.76-5.054-5.378-4.798-7.782
			c0.239-2.247,2.077-4.28,3.895-5.747c2.211,2.85,5.227,4.794,8.463,6.077c7.051,2.799,15.027,2.585,17.361,2.448
			c0.203,0.299,0.423,0.589,0.638,0.874c0.275,0.307,0.646,0.591,0.984,0.858c0.364,0.29,0.706,0.513,0.919,0.585
			c0.307,0.145,0.607,0.238,0.91,0.356c0.488,2.38-1.192,4.124-2.758,5.179C111.738,459.576,100.308,459.592,91.898,452.845z
			 M172.507,515.513c-12.611-7.956-39.112-28.824-43.719-32.471c0.449,0.028,0.9,0.066,1.327,0.028
			c1.194-0.091,2.289-0.175,3.259-0.25c0.956-0.138,1.768-0.412,2.443-0.559c1.338-0.335,2.102-0.526,2.102-0.526
			s-0.781,0.102-2.148,0.28c-0.682,0.067-1.498,0.244-2.445,0.27c-0.946-0.037-2.014-0.078-3.178-0.124
			c-1.157-0.027-2.382-0.42-3.675-0.632c-1.302-0.201-2.583-0.84-3.941-1.259c-1.339-0.501-2.632-1.265-3.981-1.896
			c-1.263-0.831-2.593-1.569-3.811-2.492c-1.207-0.943-2.449-1.813-3.542-2.858c-1.142-0.974-2.203-2.002-3.192-3.04
			c-2.009-2.035-3.705-4.108-5.109-5.907c-0.096-0.127-0.179-0.242-0.273-0.367c6.936,1.118,13.663-0.195,18.131-3.203
			c3.424-2.305,5.311-5.472,5.421-8.853c0.059,0.003,0.118,0.01,0.177,0.013c4.558-0.055,8.334-1.711,11.29-3.436
			c2.982-1.748,5.234-3.701,6.99-5.369c3.467-3.4,4.987-5.703,4.987-5.703s-1.911,2.001-5.727,4.823
			c-1.911,1.394-4.341,2.947-7.269,4.286c-2.922,1.304-6.449,2.331-10.148,2.081c-0.902-0.199-1.847-0.233-2.744-0.543l-1.348-0.477
			l-0.34-0.117l-0.12-0.041l-0.039-0.023l-0.715-0.414c-1.056-0.668-1.533-2.097-1.3-4.036c0.571-3.923,2.957-8.275,5.559-12.426
			c2.646-4.199,5.868-8.283,9.233-12.325c3.39-3.984,7.098-7.997,11.034-11.184c0.87-0.73,2.022-1.469,2.417-1.632l0.094-0.01
			l0.509-0.056c0.355-0.049,0.704-0.085,0.816-0.001c0.402,0.14,0.565,0.023,1.216,0.238c2.207,0.475,4.523,1.6,6.65,2.826
			c4.253,2.567,8.105,5.839,10.903,9.666c2.8,3.814,4.621,8.1,5.134,12.387c0.275,1.058,0.108,2.137,0.184,3.188
			c0.002,0.527,0.04,1.053,0.017,1.573l-0.205,1.543c-0.154,1.018-0.193,2.047-0.426,3.025c-0.234,1.042-0.463,2.064-0.688,3.065
			c-0.971,3.892-2.001,7.44-3.167,10.507c-1.202,3.04-2.457,5.612-3.721,7.594c-1.266,1.976-2.476,3.4-3.43,4.239
			c-0.945,0.852-1.583,1.136-1.583,1.136s0.675-0.177,1.773-0.885c1.089-0.704,2.607-1.92,4.169-3.804
			c1.176-1.366,2.372-3.074,3.544-5.075l26.943,14.484C196.799,499.621,177.838,512.472,172.507,515.513z M187.431,545.852
			c-11.233-10.965-16.293-19.859-16.292-24.365l1.101,0.657l1.398-0.659c1.22-0.577,29.863-14.519,28.994-52.475
			c1.408,0.155,3.31,0.652,5.865,1.866c9.163,4.323,39.878,16.892,60.142,17.846c3.857,0.185,7.652,4.349,10.431,11.433
			c7.043,17.934,6.598,54.731-12.629,74.344C250.595,590.668,210.374,568.25,187.431,545.852z M539.989,722.449
			c-2.471,2.089-21.052,15.517-98.121,25.62c-76.612,10.049-131.158-21.89-141.176-28.298
			c11.764-46.445-5.099-104.493-5.833-106.975l-0.423-1.434l-1.413-0.488c-0.302-0.104-30.363-10.528-38.768-15.731
			c-4.52-2.8-5.888-6.818-6.289-9.438c8.888,0.763,16.805-1.204,22.619-7.135c21.205-21.63,21.692-60.671,13.891-80.536
			c-3.51-8.938-8.659-14.17-14.562-14.961c0.164-0.167,0.306-0.336,0.522-0.492c1.746-1.257,4.691-1.577,8.516-0.923
			c12.442,2.13,57.985,0.375,71.87-5.323c0.368,0.077,0.741,0.147,1.11,0.223c-3.58,4.232-8.782,12.645-4.749,22.681
			c3.322,8.276,14.333,23.421,35.028,31.635c14.061,5.581,32.595,7.959,56.219,2.807c59.452-12.965,55.181-58.145,55.122-58.676
			c-0.755-5.535-4.021-14.182-13.571-17.113c11.384-5.659,21.755-12.195,31.055-19.561c24.369,49.953,44.7,62.652,52.734,65.84
			c2.161,0.857,3.432,1.029,3.653,1.053l1.72,0.188l0.984-1.422c0.084-0.121,2.958-4.309,7.49-11.821
			c0.33,1.49,0.274,3.614-0.944,6.683c-3.08,7.761-32.061,43.184-42.968,56.175l-0.939,1.12l0.337,1.418
			C558.32,663.868,542.03,716.536,539.989,722.449z"/>
	</g>
</g>
</svg>
